<?xml version="1.0" encoding="UTF-8" standalone="no"?>
<!-- Created with Inkscape (http://www.inkscape.org/) -->

<svg
   xmlns:dc="http://purl.org/dc/elements/1.1/"
   xmlns:cc="http://creativecommons.org/ns#"
   xmlns:rdf="http://www.w3.org/1999/02/22-rdf-syntax-ns#"
   xmlns:svg="http://www.w3.org/2000/svg"
   xmlns="http://www.w3.org/2000/svg"
   xmlns:sodipodi="http://sodipodi.sourceforge.net/DTD/sodipodi-0.dtd"
   xmlns:inkscape="http://www.inkscape.org/namespaces/inkscape"
   width="47.305176mm"
   height="41.960335mm"
   viewBox="0 0 47.305176 41.960335"
   version="1.1"
   id="svg8"
   inkscape:version="0.92.4 5da689c313, 2019-01-14"
   sodipodi:docname="icon.svg">
  <defs
     id="defs2" />
  <sodipodi:namedview
     id="base"
     pagecolor="#ffffff"
     bordercolor="#666666"
     borderopacity="1.0"
     inkscape:pageopacity="0.0"
     inkscape:pageshadow="2"
     inkscape:zoom="1.979899"
     inkscape:cx="199.55913"
     inkscape:cy="67.316196"
     inkscape:document-units="mm"
     inkscape:current-layer="layer1"
     showgrid="false"
     fit-margin-top="0"
     fit-margin-left="0"
     fit-margin-right="0"
     fit-margin-bottom="0"
     inkscape:window-width="1366"
     inkscape:window-height="744"
     inkscape:window-x="0"
     inkscape:window-y="0"
     inkscape:window-maximized="1" />
  <metadata
     id="metadata5">
    <rdf:RDF>
      <cc:Work
         rdf:about="">
        <dc:format>image/svg+xml</dc:format>
        <dc:type
           rdf:resource="http://purl.org/dc/dcmitype/StillImage" />
        <dc:title></dc:title>
      </cc:Work>
    </rdf:RDF>
  </metadata>
  <g
     inkscape:label="Layer 1"
     inkscape:groupmode="layer"
     id="layer1"
     transform="translate(-4.1286627,-108.23309)">
    <g
       id="g892"
       transform="translate(-63.122024,0.37797619)">
      <path
         style="fill:#fdcf83;stroke-width:0.26458332"
         d="m 83.627233,149.40535 c -9.888184,-1.33543 -15.593459,-4.96285 -16.277056,-10.34898 -0.150658,-1.18705 -0.07986,-1.55771 0.493423,-2.58343 l 0.669316,-1.19754 -0.538595,-1.21758 c -0.784005,-1.77237 -0.795965,-4.21533 -0.02592,-5.29487 l 0.593039,-0.83141 -0.537895,-1.21599 c -0.800492,-1.80965 -0.819551,-4.28928 -0.04135,-5.3803 0.579084,-0.81187 0.587321,-0.88849 0.180159,-1.67585 -0.652067,-1.26096 -0.995914,-3.84782 -0.650549,-4.89428 0.842249,-2.55204 5.636147,-4.87938 12.909569,-6.26734 2.740772,-0.523 3.938451,-0.59033 10.501909,-0.59033 6.563458,0 7.761137,0.0673 10.501907,0.59033 7.27343,1.38796 12.06732,3.7153 12.90957,6.26734 0.34537,1.04646 0.002,3.63332 -0.65055,4.89428 -0.40716,0.78736 -0.39892,0.86398 0.18016,1.67585 0.7782,1.09102 0.75914,3.57065 -0.0413,5.3803 l -0.5379,1.21599 0.59304,0.83141 c 0.77005,1.07954 0.75808,3.5225 -0.0259,5.29487 l -0.53859,1.21758 0.66931,1.19754 c 0.57329,1.02572 0.64408,1.39638 0.49342,2.58343 -0.69411,5.46901 -6.43501,9.05195 -16.621334,10.37351 -3.825092,0.49626 -10.436138,0.48485 -14.207803,-0.0245 z"
         id="path906"
         inkscape:connector-curvature="0" />
      <path
         style="fill:#fdca7e;stroke-width:0.26458332"
         d="m 86.243611,149.72004 c -0.05656,-0.0551 -0.806803,-0.17452 -1.667208,-0.26545 -1.663896,-0.17586 -3.041571,-0.37798 -3.95926,-0.58087 -0.308982,-0.0683 -0.859441,-0.18108 -1.223243,-0.25058 -0.363802,-0.0695 -0.840052,-0.1931 -1.058333,-0.27465 -0.218282,-0.0815 -0.69176,-0.20439 -1.052175,-0.27298 -0.984696,-0.18742 -4.307028,-1.71402 -5.6947,-2.6167 -2.278317,-1.48204 -3.891774,-3.95794 -4.247816,-6.51841 -0.144726,-1.0408 -0.05903,-1.44494 0.53965,-2.54491 l 0.711698,-1.30762 -0.578638,-1.13423 c -0.849445,-1.66505 -0.862675,-4.07264 -0.02881,-5.24179 l 0.629424,-0.8825 1.232594,1.14708 c 1.057113,0.98378 1.038535,0.95106 -0.130488,-0.22983 -1.726811,-1.74432 -2.236747,-2.82885 -2.305815,-4.90398 -0.04561,-1.37039 0.0524,-1.80738 0.567272,-2.52925 l 0.62241,-0.87265 1.368954,1.2947 c 0.752926,0.71208 1.663466,1.43877 2.023424,1.61485 0.614847,0.30076 0.622433,0.29608 0.125302,-0.0774 -3.170228,-2.38185 -4.926421,-4.61663 -4.272723,-5.43709 0.223108,-0.28003 0.223874,-0.33354 0.0029,-0.20114 -0.50057,0.29988 -0.71302,-2.00168 -0.280353,-3.0372 1.060831,-2.53893 5.68065,-4.73464 12.833703,-6.09963 2.740772,-0.523 3.938451,-0.59033 10.501909,-0.59033 6.563458,0 7.761137,0.0673 10.501901,0.59033 7.15306,1.36499 11.77288,3.5607 12.83371,6.09963 0.43266,1.03552 0.22022,3.33708 -0.28036,3.0372 -0.22099,-0.1324 -0.22022,-0.0789 0.003,0.20114 0.6537,0.82046 -1.10249,3.05524 -4.27272,5.43709 -0.49713,0.37351 -0.48955,0.37819 0.1253,0.0774 0.35996,-0.17608 1.2705,-0.90277 2.02342,-1.61485 l 1.36896,-1.2947 0.62241,0.87265 c 0.51487,0.72187 0.61288,1.15886 0.56727,2.52925 -0.0691,2.07513 -0.57901,3.15966 -2.30581,4.90398 -1.16903,1.18089 -1.18761,1.21361 -0.13049,0.22983 l 1.23259,-1.14708 0.62942,0.8825 c 0.83387,1.16915 0.82064,3.57674 -0.0288,5.24179 l -0.57864,1.13423 0.7117,1.30762 c 0.59868,1.09997 0.68437,1.50411 0.53965,2.54491 -0.35604,2.56047 -1.9695,5.03637 -4.24782,6.51841 -1.38767,0.90268 -4.71,2.42928 -5.6947,2.6167 -0.36041,0.0686 -0.83389,0.19144 -1.05217,0.27298 -0.21828,0.0815 -0.69453,0.20514 -1.05833,0.27465 -0.36381,0.0695 -0.95912,0.19181 -1.32292,0.27179 -0.3638,0.08 -1.194483,0.21859 -1.845961,0.30803 -0.651476,0.0894 -1.484913,0.21575 -1.852083,0.28068 -0.864037,0.1528 -11.012893,0.36801 -11.148076,0.2364 z m 2.873727,-3.51913 c -0.691224,-0.0545 -1.822318,-0.0545 -2.513542,0 -0.691224,0.0545 -0.125677,0.0991 1.256771,0.0991 1.382448,0 1.947994,-0.0446 1.256771,-0.0991 z m 6.085416,0 c -0.691224,-0.0545 -1.822318,-0.0545 -2.513542,0 -0.691223,0.0545 -0.125677,0.0991 1.256771,0.0991 1.382448,0 1.947995,-0.0446 1.256771,-0.0991 z m -10.844832,-0.25189 c -0.252964,-0.0662 -0.729214,-0.0686 -1.058333,-0.005 -0.329118,0.0633 -0.122147,0.11747 0.459936,0.12041 0.582083,0.003 0.851362,-0.0488 0.598397,-0.11507 z m 14.287501,0 c -0.252966,-0.0662 -0.729216,-0.0686 -1.058334,-0.005 -0.329118,0.0633 -0.122147,0.11747 0.459936,0.12041 0.582083,0.003 0.851363,-0.0488 0.598398,-0.11507 z m -16.534508,-0.25635 c -0.179132,-0.0725 -0.536319,-0.0769 -0.79375,-0.01 -0.257431,0.0671 -0.110869,0.12638 0.325693,0.13177 0.436563,0.005 0.647188,-0.0495 0.468057,-0.12197 z m 18.520835,0 c -0.17913,-0.0725 -0.53632,-0.0769 -0.793752,-0.01 -0.257432,0.0671 -0.110869,0.12638 0.325692,0.13177 0.43656,0.005 0.64719,-0.0495 0.46806,-0.12197 z m -20.108335,-0.26458 c -0.179132,-0.0725 -0.536319,-0.0769 -0.79375,-0.01 -0.257431,0.0671 -0.110869,0.12638 0.325693,0.13178 0.436563,0.005 0.647188,-0.0495 0.468057,-0.12197 z m 21.695835,0 c -0.17913,-0.0725 -0.53632,-0.0769 -0.79375,-0.01 -0.25743,0.0671 -0.11087,0.12638 0.32569,0.13178 0.43656,0.005 0.64719,-0.0495 0.46806,-0.12197 z m -23.288371,-0.26626 c -0.181901,-0.0734 -0.479557,-0.0734 -0.661458,0 -0.181901,0.0734 -0.03307,0.13345 0.330729,0.13345 0.363802,0 0.51263,-0.06 0.330729,-0.13345 z m 24.606251,0 c -0.1819,-0.0734 -0.47956,-0.0734 -0.66146,0 -0.1819,0.0734 -0.0331,0.13345 0.33073,0.13345 0.3638,0 0.51263,-0.06 0.33073,-0.13345 z m -25.802388,-0.24921 c -0.08792,-0.0879 -0.316122,-0.0973 -0.507118,-0.0209 -0.211067,0.0845 -0.148372,0.14716 0.159852,0.15985 0.278915,0.0115 0.435185,-0.051 0.347266,-0.13896 z m 26.987498,0 c -0.0879,-0.0879 -0.31612,-0.0973 -0.50712,-0.0209 -0.21106,0.0845 -0.14837,0.14716 0.15986,0.15985 0.27891,0.0115 0.43518,-0.051 0.34726,-0.13896 z m -28.371048,-0.36931 c -0.291042,-0.12507 -0.707761,-0.22739 -0.926042,-0.22739 -0.250158,0 -0.201252,0.0841 0.132292,0.22739 0.291041,0.12506 0.70776,0.22739 0.926041,0.22739 0.250158,0 0.201253,-0.0841 -0.132291,-0.22739 z m 29.897918,0 c 0.33354,-0.14333 0.38245,-0.22739 0.13229,-0.22739 -0.21828,0 -0.635,0.10232 -0.92604,0.22739 -0.33355,0.14333 -0.38245,0.22739 -0.13229,0.22739 0.21828,0 0.635,-0.10233 0.92604,-0.22739 z m -33.469793,-1.19063 c -0.363802,-0.20797 -0.780521,-0.37812 -0.926042,-0.37812 -0.145521,0 0.03307,0.17015 0.396875,0.37812 0.363802,0.20797 0.780521,0.37813 0.926042,0.37813 0.145521,0 -0.03307,-0.17016 -0.396875,-0.37813 z m 36.777083,0 c 0.3638,-0.20797 0.5424,-0.37812 0.39687,-0.37812 -0.14552,0 -0.56223,0.17015 -0.92604,0.37812 -0.3638,0.20797 -0.54239,0.37813 -0.39687,0.37813 0.14552,0 0.56224,-0.17016 0.92604,-0.37813 z m -38.629167,-0.78444 c 0,-0.0676 -0.26789,-0.2528 -0.595312,-0.41147 -0.571666,-0.27703 -0.574912,-0.27215 -0.08172,0.12298 0.539819,0.43249 0.677034,0.49095 0.677034,0.28849 z m 41.010417,-0.55709 c 0,-0.0728 -0.23813,-0.005 -0.52917,0.15091 -0.29104,0.15576 -0.52916,0.34273 -0.52916,0.41549 0,0.0728 0.23812,0.005 0.52916,-0.15091 0.29104,-0.15576 0.52917,-0.34273 0.52917,-0.41549 z m -20.180379,0.2224 c -0.54895,-0.0573 -1.382387,-0.0563 -1.852084,0.002 -0.469699,0.0584 -0.02056,0.10532 0.998088,0.10414 1.018646,-10e-4 1.402943,-0.049 0.853996,-0.10627 z M 87.269993,141.973 c -0.397577,-0.0604 -1.111952,-0.0616 -1.5875,-0.003 -0.475549,0.0589 -0.15026,0.10829 0.722865,0.10977 0.873125,0.002 1.262211,-0.0467 0.864635,-0.10707 z m 7.002587,-0.40639 c -0.307666,-0.3275 -0.678061,-0.89304 -0.823101,-1.25677 -0.158284,-0.39695 -0.270409,-0.49049 -0.280474,-0.23399 -0.0092,0.23504 0.217453,0.72511 0.50373,1.08905 0.286274,0.36394 0.445024,0.73719 0.352777,0.82943 -0.09225,0.0923 0.05147,0.16773 0.31937,0.16773 0.451649,0 0.44639,-0.0433 -0.0723,-0.59545 z m -24.668263,0.25047 c 0,-0.0442 -0.446485,-0.49069 -0.992188,-0.99218 l -0.992187,-0.9118 0.911798,0.99219 c 0.848682,0.9235 1.072577,1.11384 1.072577,0.91179 z m 14.753605,-0.1014 c -0.252964,-0.0662 -0.729214,-0.0686 -1.058333,-0.005 -0.329118,0.0633 -0.122147,0.11747 0.459936,0.12041 0.582083,0.003 0.851362,-0.0488 0.598397,-0.11507 z m 16.180598,-0.25253 c 0.0606,-0.0522 -0.21428,-0.0948 -0.610929,-0.0948 -0.413406,0 -0.651386,-0.11292 -0.557649,-0.26459 0.270491,-0.43766 0.0145,-0.29867 -0.450816,0.24478 -0.421232,0.49196 -0.402905,0.50424 0.536509,0.35943 0.534953,-0.0825 1.022245,-0.19262 1.082885,-0.24478 z m 12.72205,-0.49172 c 0.49365,-0.50932 0.83802,-0.92604 0.76526,-0.92604 -0.0728,0 -0.53619,0.41672 -1.02985,0.92604 -0.49365,0.50932 -0.83802,0.92604 -0.76526,0.92604 0.0728,0 0.53619,-0.41672 1.02985,-0.92604 z m -30.885072,0.48791 c -0.179132,-0.0725 -0.536319,-0.0769 -0.79375,-0.01 -0.257431,0.0671 -0.110869,0.12638 0.325694,0.13178 0.436562,0.005 0.647187,-0.0495 0.468056,-0.12197 z m -1.592536,-0.26626 c -0.181901,-0.0734 -0.479557,-0.0734 -0.661458,0 -0.181901,0.0734 -0.03307,0.13345 0.330729,0.13345 0.363802,0 0.512631,-0.06 0.330729,-0.13345 z m 20.902088,0 c -0.18191,-0.0734 -0.47956,-0.0734 -0.66146,0 -0.1819,0.0734 -0.0331,0.13345 0.33073,0.13345 0.3638,0 0.51263,-0.06 0.33073,-0.13345 z m -22.098225,-0.24921 c -0.08792,-0.0879 -0.316122,-0.0973 -0.507118,-0.0209 -0.211067,0.0845 -0.148372,0.14716 0.159853,0.15985 0.278915,0.0115 0.435184,-0.051 0.347265,-0.13896 z m 23.283335,0 c -0.0879,-0.0879 -0.31612,-0.0973 -0.50712,-0.0209 -0.21107,0.0845 -0.14837,0.14716 0.15985,0.15985 0.27892,0.0115 0.43519,-0.051 0.34727,-0.13896 z m -24.666885,-0.36931 c -0.291042,-0.12507 -0.70776,-0.22739 -0.926042,-0.22739 -0.250158,0 -0.201252,0.0841 0.132292,0.22739 0.291042,0.12506 0.70776,0.22739 0.926042,0.22739 0.250158,0 0.201252,-0.0841 -0.132292,-0.22739 z m 26.193755,0 c 0.33354,-0.14333 0.38244,-0.22739 0.13229,-0.22739 -0.21828,0 -0.635,0.10232 -0.92605,0.22739 -0.33354,0.14333 -0.38244,0.22739 -0.13229,0.22739 0.21828,0 0.635,-0.10233 0.92605,-0.22739 z m -28.707297,-0.79375 c -0.218281,-0.14107 -0.515937,-0.25648 -0.661458,-0.25648 -0.145521,0 -0.08599,0.11541 0.132292,0.25648 0.218281,0.14106 0.515937,0.25648 0.661458,0.25648 0.145521,0 0.08599,-0.11542 -0.132292,-0.25648 z m 30.956247,0 c 0.21828,-0.14107 0.27782,-0.25648 0.1323,-0.25648 -0.14553,0 -0.44318,0.11541 -0.66146,0.25648 -0.21828,0.14106 -0.27782,0.25648 -0.1323,0.25648 0.14553,0 0.44318,-0.11542 0.66146,-0.25648 z m -6.13556,-1.4082 c 0.31706,-0.0836 0.27395,-0.12684 -0.14829,-0.14861 -0.508998,-0.0262 -0.589567,0.094 -0.555671,0.8292 0.03579,0.77627 0.05021,0.79072 0.148291,0.14861 0.05976,-0.3912 0.30981,-0.76435 0.55567,-0.8292 z m -25.901069,1.04384 c -0.269353,-0.24376 -2.359201,-1.22043 -2.359201,-1.10255 0,0.16232 1.893225,1.17454 2.22691,1.19063 0.133394,0.006 0.192925,-0.0332 0.132291,-0.0881 z m 33.899259,-0.43477 c 0.57628,-0.294 1.04779,-0.59408 1.04779,-0.66684 0,-0.11854 -2.08859,0.85671 -2.3592,1.10161 -0.29286,0.26504 0.37123,0.0449 1.31141,-0.43477 z M 91.366296,138.7906 c -1.055026,-0.0502 -2.781432,-0.0502 -3.836459,0 -1.055026,0.0502 -0.191822,0.0913 1.91823,0.0913 2.110052,0 2.973255,-0.0411 1.918229,-0.0913 z m -6.74379,-0.24992 c -0.252965,-0.0662 -0.729215,-0.0686 -1.058334,-0.005 -0.329118,0.0633 -0.122147,0.11747 0.459936,0.12041 0.582084,0.003 0.851363,-0.0489 0.598398,-0.11507 z m -2.384335,-0.26518 c -0.254662,-0.0665 -0.67138,-0.0665 -0.926042,0 -0.254661,0.0666 -0.0463,0.12101 0.463021,0.12101 0.509323,0 0.717682,-0.0545 0.463021,-0.12101 z m -1.719792,-0.25742 c -0.181901,-0.0734 -0.479557,-0.0734 -0.661458,0 -0.181901,0.0734 -0.03307,0.13345 0.330729,0.13345 0.363802,0 0.51263,-0.0601 0.330729,-0.13345 z m 21.431251,0 c -0.1819,-0.0734 -0.47956,-0.0734 -0.66146,0 -0.1819,0.0734 -0.0331,0.13345 0.33073,0.13345 0.3638,0 0.51263,-0.0601 0.33073,-0.13345 z m -22.754167,-0.26459 c -0.181902,-0.0734 -0.479558,-0.0734 -0.661459,0 -0.181901,0.0734 -0.03307,0.13346 0.330729,0.13346 0.363802,0 0.512631,-0.0601 0.33073,-0.13346 z m 24.077087,0 c -0.18191,-0.0734 -0.47956,-0.0734 -0.66146,0 -0.1819,0.0734 -0.0331,0.13346 0.33073,0.13346 0.3638,0 0.51263,-0.0601 0.33073,-0.13346 z m -32.080733,-0.18063 c 0,-0.0502 -0.267891,-0.3181 -0.595313,-0.59532 l -0.595312,-0.50403 0.504028,0.59532 c 0.473662,0.55944 0.686597,0.71576 0.686597,0.50403 z m 6.35,-0.1733 c -0.904656,-0.28973 -1.60026,-0.28973 -0.926042,0 0.291042,0.12506 0.767292,0.22389 1.058333,0.21961 0.425393,-0.006 0.39945,-0.0493 -0.132291,-0.21961 z m 27.648963,0 c 0.67421,-0.28973 -0.0214,-0.28973 -0.92605,0 -0.53174,0.17029 -0.55768,0.21336 -0.13229,0.21961 0.29104,0.004 0.76729,-0.0945 1.05834,-0.21961 z m 6.08541,-0.26459 c 0.26339,-0.29104 0.41936,-0.52916 0.3466,-0.52916 -0.0728,0 -0.34779,0.23812 -0.61118,0.52916 -0.26339,0.29104 -0.41936,0.52917 -0.3466,0.52917 0.0728,0 0.34779,-0.23813 0.61118,-0.52917 z M 75.557442,136.87039 C 75.2664,136.74532 74.849681,136.643 74.6314,136.643 c -0.250158,0 -0.201252,0.0841 0.132292,0.22739 0.291041,0.12507 0.70776,0.22739 0.926041,0.22739 0.250158,0 0.201253,-0.0841 -0.132291,-0.22739 z m 31.485418,0 c 0.33354,-0.14333 0.38245,-0.22739 0.13229,-0.22739 -0.21828,0 -0.635,0.10232 -0.92604,0.22739 -0.33355,0.14333 -0.38245,0.22739 -0.13229,0.22739 0.21828,0 0.635,-0.10232 0.92604,-0.22739 z m -33.20521,-0.52917 c -0.218281,-0.14106 -0.515937,-0.25648 -0.661458,-0.25648 -0.145521,0 -0.08599,0.11542 0.132291,0.25648 0.218282,0.14107 0.515938,0.25648 0.661459,0.25648 0.145521,0 0.08599,-0.11541 -0.132292,-0.25648 z m 34.66042,0 c 0.21828,-0.14106 0.27781,-0.25648 0.13229,-0.25648 -0.14552,0 -0.44318,0.11542 -0.66146,0.25648 -0.21828,0.14107 -0.27781,0.25648 -0.13229,0.25648 0.14552,0 0.44318,-0.11541 0.66146,-0.25648 z m -38.893753,-0.36448 c 0,-0.0549 -0.20836,-0.2633 -0.463021,-0.46302 -0.419644,-0.3291 -0.429002,-0.31975 -0.0999,0.0999 0.345644,0.44073 0.562916,0.58089 0.562916,0.36312 z m 3.152951,1.3e-4 c -0.269354,-0.24376 -2.359201,-1.22044 -2.359201,-1.10255 0,0.16231 1.893225,1.17454 2.226909,1.19063 0.133394,0.006 0.192926,-0.0332 0.132292,-0.0881 z m 37.603422,-0.43477 c 0.57629,-0.294 1.04779,-0.59408 1.04779,-0.66684 0,-0.11854 -2.08859,0.85671 -2.3592,1.10161 -0.29286,0.26504 0.37124,0.0449 1.31141,-0.43477 z m 2.40446,0.0715 c 0.32911,-0.41965 0.31975,-0.429 -0.0999,-0.0999 -0.44073,0.34565 -0.58088,0.56292 -0.36312,0.56292 0.0549,0 0.2633,-0.20836 0.46302,-0.46302 z m -24.838437,-1.0513 c -0.472943,-0.0587 -1.246849,-0.0587 -1.719792,0 -0.472943,0.0587 -0.08599,0.10672 0.859896,0.10672 0.945885,0 1.332838,-0.048 0.859896,-0.10672 z m -3.304207,-0.25497 c -0.252965,-0.0662 -0.729215,-0.0686 -1.058334,-0.005 -0.329118,0.0633 -0.122147,0.11746 0.459936,0.1204 0.582084,0.003 0.851363,-0.0488 0.598398,-0.11507 z m -15.282773,-0.16558 c 0,-0.0455 -0.386953,-0.43249 -0.859895,-0.8599 l -0.859896,-0.77711 0.777105,0.8599 c 0.724371,0.80155 0.942686,0.98151 0.942686,0.77711 z m 13.300348,-0.0908 c -0.179131,-0.0725 -0.536319,-0.0769 -0.79375,-0.01 -0.257431,0.0671 -0.110868,0.12638 0.325694,0.13177 0.436562,0.005 0.647188,-0.0495 0.468056,-0.12197 z m 17.430999,-1.31547 c -0.065,-1.04531 0.0139,-1.55727 0.26458,-1.7161 0.27689,-0.17547 0.2531,-0.22728 -0.10582,-0.23042 -0.393901,-0.003 -0.463023,0.25269 -0.463023,1.71574 0,0.94589 0.0893,1.71996 0.198437,1.72016 0.109136,1.9e-4 0.156756,-0.67003 0.105826,-1.48938 z m 13.33842,0.62912 0.77711,-0.8599 -0.8599,0.77711 c -0.80154,0.72437 -0.98151,0.94269 -0.7771,0.94269 0.0455,0 0.43249,-0.38696 0.85989,-0.8599 z m -32.361954,0.42008 c -0.181901,-0.0734 -0.479557,-0.0734 -0.661458,0 -0.181902,0.0734 -0.03307,0.13346 0.330729,0.13346 0.363802,0 0.51263,-0.0601 0.330729,-0.13346 z m 20.372914,0 c -0.1819,-0.0734 -0.47955,-0.0734 -0.66146,0 -0.1819,0.0734 -0.0331,0.13346 0.33073,0.13346 0.36381,0 0.51263,-0.0601 0.33073,-0.13346 z m -21.569051,-0.2492 c -0.08792,-0.0879 -0.316122,-0.0973 -0.507118,-0.0209 -0.211067,0.0845 -0.148372,0.14716 0.159852,0.15985 0.278915,0.0115 0.435184,-0.051 0.347266,-0.13896 z m 22.754171,0 c -0.0879,-0.0879 -0.31613,-0.0973 -0.50712,-0.0209 -0.21107,0.0845 -0.14838,0.14716 0.15985,0.15985 0.27891,0.0115 0.43518,-0.051 0.34727,-0.13896 z m -23.812505,-0.26459 c -0.08792,-0.0879 -0.316122,-0.0973 -0.507118,-0.0209 -0.211067,0.0845 -0.148372,0.14715 0.159853,0.15985 0.278915,0.0115 0.435184,-0.0511 0.347265,-0.13897 z m 24.870835,0 c -0.0879,-0.0879 -0.31612,-0.0973 -0.50712,-0.0209 -0.21107,0.0845 -0.14837,0.14715 0.15985,0.15985 0.27892,0.0115 0.43519,-0.0511 0.34727,-0.13897 z M 76.504694,132.6185 c -0.788699,-0.27995 -1.48075,-0.46224 -1.537891,-0.4051 -0.134478,0.13448 2.055316,0.91051 2.575014,0.91254 0.218281,8e-4 -0.248425,-0.22749 -1.037123,-0.50744 z m 29.182456,0.12103 c 0.68865,-0.23465 1.20633,-0.47239 1.1504,-0.52833 -0.0559,-0.0559 -0.747,0.12735 -1.53569,0.4073 -0.7887,0.27995 -1.30638,0.5177 -1.15041,0.52833 0.15598,0.0106 0.84704,-0.17265 1.5357,-0.4073 z m -31.606965,-0.99274 c -0.06063,-0.053 -0.4079,-0.23821 -0.771702,-0.41147 -0.623693,-0.29703 -0.632136,-0.29152 -0.147867,0.0965 0.42148,0.33768 1.282663,0.6327 0.919569,0.31502 z m 34.565745,-0.31502 c 0.48427,-0.38797 0.47583,-0.39348 -0.14786,-0.0965 -0.8099,0.38572 -0.96,0.50793 -0.62384,0.50793 0.14196,0 0.48923,-0.18516 0.7717,-0.41148 z m -17.29121,-0.0498 c -1.061392,-0.0503 -2.728267,-0.05 -3.704166,8e-4 -0.9759,0.0508 -0.107487,0.0919 1.929804,0.0915 2.037292,-5.3e-4 2.835754,-0.0419 1.774362,-0.0923 z m -6.338424,-0.25461 c -0.327422,-0.0631 -0.863203,-0.0631 -1.190625,0 -0.327422,0.0631 -0.05953,0.11466 0.595312,0.11466 0.654844,0 0.922735,-0.0516 0.595313,-0.11466 z m -2.513542,-0.26025 c -0.254661,-0.0665 -0.67138,-0.0665 -0.926042,0 -0.254661,0.0666 -0.0463,0.121 0.463021,0.121 0.509323,0 0.717683,-0.0545 0.463021,-0.121 z m -1.714756,-0.25575 c -0.179132,-0.0725 -0.536319,-0.0769 -0.79375,-0.01 -0.257431,0.0671 -0.110869,0.12638 0.325694,0.13178 0.436562,0.005 0.647187,-0.0495 0.468056,-0.12197 z m 21.166662,0 c -0.17913,-0.0725 -0.53631,-0.0769 -0.79375,-0.01 -0.25743,0.0671 -0.11086,0.12638 0.3257,0.13178 0.43656,0.005 0.64719,-0.0495 0.46805,-0.12197 z M 79.195463,130.3451 c -0.181902,-0.0734 -0.479558,-0.0734 -0.661459,0 -0.181901,0.0734 -0.03307,0.13345 0.330729,0.13345 0.363802,0 0.512631,-0.06 0.33073,-0.13345 z m 24.077087,0 c -0.18191,-0.0734 -0.47956,-0.0734 -0.66146,0 -0.1819,0.0734 -0.0331,0.13345 0.33073,0.13345 0.3638,0 0.51263,-0.06 0.33073,-0.13345 z m -25.273225,-0.24921 c -0.08792,-0.0879 -0.316122,-0.0973 -0.507118,-0.0209 -0.211067,0.0845 -0.148372,0.14715 0.159853,0.15985 0.278915,0.0115 0.435184,-0.0511 0.347265,-0.13897 z m 26.458335,0 c -0.0879,-0.0879 -0.31612,-0.0973 -0.50712,-0.0209 -0.21107,0.0845 -0.14837,0.14715 0.15985,0.15985 0.27892,0.0115 0.43519,-0.0511 0.34727,-0.13897 z m -27.516668,-0.26458 c -0.08792,-0.0879 -0.316122,-0.0973 -0.507118,-0.0209 -0.211067,0.0845 -0.148372,0.14716 0.159852,0.15985 0.278915,0.0115 0.435185,-0.051 0.347266,-0.13896 z m 28.574998,0 c -0.0879,-0.0879 -0.31612,-0.0973 -0.50712,-0.0209 -0.21106,0.0845 -0.14837,0.14716 0.15986,0.15985 0.27891,0.0115 0.43518,-0.051 0.34726,-0.13896 z m -30.752298,-0.6339 c -0.727362,-0.31255 -1.145108,-0.31255 -0.661459,0 0.218282,0.14107 0.575469,0.24994 0.79375,0.24194 0.261688,-0.01 0.216625,-0.092 -0.132291,-0.24194 z m 32.940628,0 c 0.48365,-0.31255 0.0659,-0.31255 -0.66146,0 -0.34892,0.14994 -0.39398,0.23235 -0.13229,0.24194 0.21828,0.008 0.57547,-0.10087 0.79375,-0.24194 z m -35.476219,-0.89239 c -0.270121,-0.2417 -1.830034,-0.95996 -1.830034,-0.84264 0,0.16446 1.371755,0.91645 1.697743,0.93069 0.133394,0.006 0.192925,-0.0338 0.132291,-0.0881 z m 38.399769,-0.30503 c 0.42934,-0.22201 0.78061,-0.4632 0.78061,-0.53596 0,-0.1185 -1.55776,0.59737 -1.83003,0.84099 -0.26753,0.23938 0.33575,0.064 1.04942,-0.30503 z M 89.514212,127.1701 c -0.181901,-0.0734 -0.479557,-0.0734 -0.661458,0 -0.181901,0.0734 -0.03307,0.13345 0.330729,0.13345 0.363802,0 0.512631,-0.0601 0.330729,-0.13345 z m 3.439584,0 c -0.181901,-0.0734 -0.479557,-0.0734 -0.661458,0 -0.181902,0.0734 -0.03307,0.13345 0.330729,0.13345 0.363802,0 0.51263,-0.0601 0.330729,-0.13345 z m -23.614063,-0.43673 c 0,-0.0455 -0.386953,-0.43249 -0.859895,-0.85989 l -0.859896,-0.77711 0.777105,0.8599 c 0.724371,0.80154 0.942686,0.98151 0.942686,0.7771 z m 12.7,-1.637 c 0,-0.94588 -0.0893,-1.72004 -0.198437,-1.72035 -0.109141,-3.1e-4 -0.158513,0.77361 -0.109716,1.7198 0.0488,0.94619 0.138094,1.72034 0.198438,1.72034 0.06034,0 0.109715,-0.7739 0.109715,-1.71979 z m 18.048527,-0.46302 c 0.0436,-0.69122 -0.0109,-1.25677 -0.121098,-1.25677 -0.110191,0 -0.184132,0.80367 -0.164314,1.78594 0.03734,1.85071 0.148314,1.64495 0.285412,-0.52917 z m 13.32124,1.32292 0.77711,-0.8599 -0.8599,0.77711 c -0.80154,0.72437 -0.98151,0.94268 -0.7771,0.94268 0.0455,0 0.43249,-0.38695 0.85989,-0.85989 z m -32.097371,0.42008 c -0.181901,-0.0734 -0.479557,-0.0734 -0.661458,0 -0.181901,0.0734 -0.03307,0.13345 0.330729,0.13345 0.363802,0 0.51263,-0.0601 0.330729,-0.13345 z m 19.843751,0 c -0.1819,-0.0734 -0.47956,-0.0734 -0.66146,0 -0.1819,0.0734 -0.0331,0.13345 0.33073,0.13345 0.3638,0 0.51263,-0.0601 0.33073,-0.13345 z m -21.166667,-0.26458 c -0.181902,-0.0734 -0.479558,-0.0734 -0.661459,0 -0.181901,0.0734 -0.03307,0.13345 0.330729,0.13345 0.363802,0 0.512631,-0.06 0.33073,-0.13345 z m 22.489587,0 c -0.18191,-0.0734 -0.47956,-0.0734 -0.66146,0 -0.1819,0.0734 -0.0331,0.13345 0.33073,0.13345 0.3638,0 0.51263,-0.06 0.33073,-0.13345 z m -23.685725,-0.24921 c -0.08792,-0.0879 -0.316122,-0.0973 -0.507118,-0.0209 -0.211067,0.0845 -0.148372,0.14716 0.159853,0.15985 0.278915,0.0115 0.435184,-0.051 0.347265,-0.13896 z m 24.870835,0 c -0.0879,-0.0879 -0.31612,-0.0973 -0.50712,-0.0209 -0.21107,0.0845 -0.14837,0.14716 0.15985,0.15985 0.27892,0.0115 0.43519,-0.051 0.34727,-0.13896 z M 75.160567,124.6995 c -0.218282,-0.14107 -0.515938,-0.25648 -0.661459,-0.25648 -0.14552,0 -0.08599,0.11541 0.132292,0.25648 0.218281,0.14106 0.515938,0.25648 0.661458,0.25648 0.145521,0 0.08599,-0.11542 -0.132291,-0.25648 z m 32.014583,0 c 0.21828,-0.14107 0.27781,-0.25648 0.13229,-0.25648 -0.14552,0 -0.44318,0.11541 -0.66146,0.25648 -0.21828,0.14106 -0.27781,0.25648 -0.13229,0.25648 0.14552,0 0.44318,-0.11542 0.66146,-0.25648 z m -15.007122,-0.72251 c -0.614071,-0.0555 -1.685634,-0.0562 -2.38125,-0.001 -0.695613,0.0547 -0.193191,0.10008 1.116497,0.10089 1.309688,7.9e-4 1.878827,-0.0439 1.264753,-0.0994 z m -11.115447,-0.77396 c -0.179131,-0.0725 -0.536319,-0.0769 -0.79375,-0.01 -0.257431,0.0671 -0.110868,0.12638 0.325694,0.13177 0.436563,0.005 0.647188,-0.0495 0.468056,-0.12197 z m 20.637499,0 c -0.17913,-0.0725 -0.53632,-0.0769 -0.79375,-0.01 -0.25743,0.0671 -0.11087,0.12638 0.3257,0.13177 0.43656,0.005 0.64718,-0.0495 0.46805,-0.12197 z m -22.230034,-0.26626 c -0.181901,-0.0734 -0.479557,-0.0734 -0.661459,0 -0.181901,0.0734 -0.03307,0.13345 0.33073,0.13345 0.363802,0 0.51263,-0.06 0.330729,-0.13345 z m 23.547914,0 c -0.1819,-0.0734 -0.47955,-0.0734 -0.66146,0 -0.1819,0.0734 -0.0331,0.13345 0.33073,0.13345 0.36381,0 0.51263,-0.06 0.33073,-0.13345 z M 77.8064,122.58289 c -0.904655,-0.28972 -1.60026,-0.28972 -0.926042,0 0.291042,0.12506 0.767292,0.22389 1.058334,0.21961 0.425393,-0.006 0.399449,-0.0493 -0.132292,-0.21961 z m 27.11979,0 c 0.67422,-0.28972 -0.0214,-0.28972 -0.92604,0 -0.53174,0.17029 -0.55769,0.21336 -0.13229,0.21961 0.29104,0.004 0.76729,-0.0945 1.05833,-0.21961 z m -28.778948,-0.42444 c -0.08792,-0.0879 -0.316122,-0.0973 -0.507118,-0.0209 -0.211067,0.0845 -0.148372,0.14716 0.159852,0.15986 0.278915,0.0115 0.435185,-0.0511 0.347266,-0.13897 z m 30.162498,0 c -0.0879,-0.0879 -0.31612,-0.0973 -0.50712,-0.0209 -0.21106,0.0845 -0.14837,0.14716 0.15986,0.15986 0.27891,0.0115 0.43518,-0.0511 0.34726,-0.13897 z m -33.001257,-0.89848 c -0.218281,-0.14106 -0.515937,-0.25648 -0.661458,-0.25648 -0.145521,0 -0.08599,0.11542 0.132292,0.25648 0.218281,0.14107 0.515937,0.25648 0.661458,0.25648 0.145521,0 0.08599,-0.11541 -0.132292,-0.25648 z m 35.718747,0 c 0.21828,-0.14106 0.27782,-0.25648 0.1323,-0.25648 -0.14553,0 -0.44318,0.11542 -0.66146,0.25648 -0.21828,0.14107 -0.27782,0.25648 -0.13229,0.25648 0.14552,0 0.44317,-0.11541 0.66145,-0.25648 z m -38.36458,-1.16019 c 0,-0.056 -0.327422,-0.30122 -0.727604,-0.54487 l -0.727604,-0.44301 0.624624,0.54487 c 0.609528,0.5317 0.830584,0.64961 0.830584,0.44301 z m 41.68972,-0.72076 c 0.0988,-0.15983 -0.13272,-0.086 -0.51444,0.16415 -0.38171,0.25011 -0.69403,0.50477 -0.69403,0.56592 0,0.19139 1.0197,-0.42463 1.20847,-0.73007 z m -43.27722,-0.327 c 0,-0.0502 -0.267891,-0.3181 -0.595312,-0.59531 l -0.595313,-0.50403 0.504028,0.59531 c 0.473662,0.55945 0.686597,0.71577 0.686597,0.50403 z m 44.31771,-0.43788 c 0.26339,-0.29104 0.41936,-0.52917 0.3466,-0.52917 -0.0728,0 -0.34779,0.23813 -0.61118,0.52917 -0.2634,0.29104 -0.41936,0.52917 -0.3466,0.52917 0.0728,0 0.34779,-0.23813 0.61118,-0.52917 z"
         id="path904"
         inkscape:connector-curvature="0" />
      <path
         style="fill:#f5b797;stroke-width:0.26458332"
         d="m 86.488041,149.65423 c 0.190996,-0.0764 0.419199,-0.067 0.507118,0.0209 0.08792,0.0879 -0.06835,0.15045 -0.347266,0.13896 -0.308224,-0.0127 -0.370919,-0.0754 -0.159852,-0.15985 z m 8.466666,0 c 0.190995,-0.0764 0.419198,-0.067 0.507119,0.0209 0.08792,0.0879 -0.06835,0.15045 -0.347265,0.13896 -0.308227,-0.0127 -0.37092,-0.0754 -0.159854,-0.15985 z m -11.327474,-3.80447 c -7.414881,-0.91147 -13.147728,-2.93348 -15.236836,-5.37413 -1.403107,-1.63921 -1.484667,-2.54808 -0.388068,-4.32444 l 0.525649,-0.85148 1.355052,1.31986 c 2.469982,2.40584 7.814323,4.48742 13.47962,5.25021 2.997888,0.40365 8.74187,0.65503 10.148245,0.44413 l 1.246383,-0.18691 -0.670232,-0.79652 c -0.431607,-0.51294 -0.670229,-1.119 -0.670229,-1.70227 v -0.90574 l -3.505729,-0.002 c -10.074048,-0.006 -19.096474,-2.52602 -21.855407,-6.10378 -0.743419,-0.96405 -0.865668,-1.31083 -0.754442,-2.14008 0.073,-0.54429 0.39003,-1.35095 0.704502,-1.79259 l 0.571769,-0.80297 1.306724,1.30672 c 3.344211,3.34421 10.852751,5.49349 19.696124,5.63792 l 3.704167,0.0605 0.07733,-1.74624 0.07733,-1.74623 -4.83983,-0.15841 c -4.986962,-0.16328 -8.399298,-0.60182 -11.851288,-1.52315 -7.653303,-2.04264 -10.987001,-5.28416 -8.715371,-8.47437 l 0.5775,-0.81102 1.064383,1.07502 c 2.433572,2.4579 5.49337,3.81588 11.63755,5.16488 l 0.727604,0.15975 v -1.71979 c 0,-1.56926 -0.05211,-1.73097 -0.595312,-1.84749 -0.327422,-0.0702 -1.583063,-0.31958 -2.790314,-0.55411 -3.625328,-0.70429 -7.348698,-2.15471 -9.393449,-3.65917 -1.241864,-0.91373 -2.127249,-2.64885 -1.918751,-3.76024 0.529023,-2.81994 5.322324,-5.31128 13.059459,-6.78772 2.740772,-0.523 3.938451,-0.59033 10.501909,-0.59033 6.563458,0 7.761137,0.0673 10.501905,0.59033 7.73714,1.47644 12.53044,3.96778 13.05946,6.78772 0.2085,1.11139 -0.67688,2.84651 -1.91875,3.76024 -2.04475,1.50446 -5.76812,2.95488 -9.39345,3.65917 -1.20725,0.23453 -2.46289,0.48388 -2.79031,0.55411 -0.543206,0.11652 -0.595313,0.27823 -0.595313,1.84749 v 1.71979 l 0.727603,-0.15975 c 6.14418,-1.349 9.20398,-2.70698 11.63755,-5.16488 l 1.06438,-1.07502 0.62701,0.87968 c 1.76726,2.47943 -0.0288,5.1315 -4.81059,7.10336 -1.71974,0.70916 -5.95447,1.85614 -8.25377,2.23554 l -0.992183,0.16372 v 1.71979 1.7198 l 0.992183,-0.17925 c 4.41725,-0.79799 9.14866,-2.86703 11.16331,-4.88168 l 1.30673,-1.30672 0.57177,0.80297 c 0.31447,0.44164 0.6315,1.2483 0.7045,1.79258 0.37896,2.82537 -4.78214,5.88205 -12.39259,7.33957 l -2.2843,0.43748 -0.143365,1.06885 c -0.07885,0.58788 -0.399137,1.41481 -0.711748,1.83764 l -0.568383,0.76878 1.011677,-0.17243 c 5.342749,-0.91062 10.228069,-2.91709 12.506919,-5.13676 l 1.35505,-1.31986 0.52565,0.85148 c 1.0966,1.77636 1.01504,2.68523 -0.38807,4.32444 -1.74655,2.04045 -6.22519,3.8636 -12.05647,4.9079 -2.387894,0.42764 -4.423408,0.56366 -9.398072,0.62801 -3.4925,0.0452 -7.242968,-0.0276 -8.334375,-0.16178 z m 9.194271,-18.50146 c 0.556006,-0.003 0.595313,-0.11647 0.595313,-1.7227 v -1.71979 h -2.513542 -2.513542 v 1.70382 1.70382 l 0.992188,0.11501 c 0.545703,0.0633 1.408906,0.0718 1.918229,0.0189 0.509323,-0.0529 1.193932,-0.0974 1.521354,-0.099 z"
         id="path902"
         inkscape:connector-curvature="0" />
      <path
         style="fill:#f6a75d;stroke-width:0.26458332"
         d="m 83.627233,145.84976 c -7.399692,-0.9096 -13.148315,-2.93416 -15.227056,-5.3627 -0.763444,-0.89192 -0.912527,-1.27203 -0.912527,-2.32662 0,-0.92609 0.157949,-1.44388 0.595313,-1.95155 l 0.595312,-0.69102 1.320419,1.23049 c 2.495499,2.32554 7.855955,4.37981 13.363956,5.12142 2.997888,0.40365 8.74187,0.65503 10.148245,0.44413 l 1.246383,-0.18691 -0.670232,-0.79652 c -0.431607,-0.51294 -0.670229,-1.119 -0.670229,-1.70227 v -0.90574 l -3.505729,-0.002 c -9.400492,-0.006 -18.041428,-2.21647 -21.265385,-5.44043 -1.057038,-1.05704 -1.158053,-1.27277 -1.158053,-2.47318 0,-0.99385 0.149841,-1.48933 0.613367,-2.02821 l 0.613367,-0.71308 1.261354,1.2259 c 3.362681,3.26815 10.885688,5.39183 19.60462,5.53422 l 3.704167,0.0605 0.07823,-1.78593 0.07823,-1.78594 h -3.159056 c -9.523796,0 -18.43805,-2.24442 -21.642837,-5.44921 -1.029301,-1.0293 -1.151451,-1.2822 -1.151451,-2.38395 0,-0.79494 0.199638,-1.55553 0.562321,-2.14236 l 0.562321,-0.90985 1.063335,1.07396 c 2.432456,2.45677 5.493189,3.81501 11.636502,5.16382 l 0.727604,0.15975 v -1.71979 c 0,-1.56926 -0.05211,-1.73097 -0.595312,-1.84749 -0.327422,-0.0702 -1.583063,-0.31958 -2.790314,-0.55411 -5.045412,-0.98016 -9.423565,-3.05296 -10.65418,-5.04414 -1.141684,-1.84728 -0.402227,-3.92776 1.944748,-5.47159 4.379859,-2.88106 11.228561,-4.27947 20.9586,-4.27947 9.730034,0 16.578744,1.39841 20.958604,4.27947 2.34697,1.54383 3.08643,3.62431 1.94474,5.47159 -1.23061,1.99118 -5.60877,4.06398 -10.65418,5.04414 -1.20725,0.23453 -2.46289,0.48388 -2.79031,0.55411 -0.543205,0.11652 -0.595312,0.27823 -0.595312,1.84749 v 1.71979 l 0.727602,-0.15975 c 6.14331,-1.34881 9.20405,-2.70705 11.6365,-5.16382 l 1.06334,-1.07396 0.56232,0.90985 c 0.73559,1.1902 0.74237,2.89411 0.0156,3.91479 -1.53047,2.14934 -6.936,4.38906 -13.01315,5.39182 l -0.992187,0.16372 v 1.71979 1.7198 l 0.992187,-0.17925 c 4.29086,-0.77516 9.07948,-2.84167 11.07181,-4.77799 l 1.26135,-1.2259 0.61337,0.71308 c 0.46352,0.53888 0.61337,1.03436 0.61337,2.02821 0,1.20041 -0.10102,1.41614 -1.15806,2.47318 -1.92447,1.92447 -5.77152,3.50146 -11.04812,4.52885 l -2.284304,0.44477 -0.143365,1.06885 c -0.07885,0.58788 -0.399137,1.41481 -0.711747,1.83764 l -0.568383,0.76878 1.011676,-0.17243 c 5.178343,-0.8826 10.097993,-2.87089 12.391253,-5.00797 l 1.32042,-1.23049 0.59531,0.69102 c 0.43737,0.50767 0.59532,1.02546 0.59532,1.95155 0,1.05459 -0.14909,1.4347 -0.91253,2.32662 -1.7362,2.02836 -6.22949,3.85469 -12.04669,4.89647 -2.387898,0.42764 -4.423411,0.56366 -9.398075,0.62801 -3.4925,0.0452 -7.242969,-0.0276 -8.334375,-0.16178 z m 9.194271,-18.50146 c 0.556006,-0.003 0.595313,-0.11647 0.595313,-1.7227 v -1.71979 h -2.513542 -2.513542 v 1.70382 1.70382 l 0.992188,0.11501 c 0.545703,0.0633 1.408906,0.0718 1.918229,0.0189 0.509323,-0.0529 1.193932,-0.0974 1.521354,-0.099 z"
         id="path900"
         inkscape:connector-curvature="0" />
      <path
         style="fill:#f28a37;stroke-width:0.26458332"
         d="m 84.553275,145.85131 c -6.563773,-0.67767 -12.354726,-2.41123 -15.280444,-4.5743 -1.74095,-1.28714 -2.24306,-3.25548 -1.247147,-4.88899 l 0.536055,-0.87924 1.47507,1.34813 c 3.88523,3.55088 11.581868,5.57146 21.210747,5.56841 l 4.153636,-0.001 -0.702681,-0.594 c -0.845746,-0.71492 -1.281694,-1.52696 -1.281694,-2.38738 v -0.63755 l -4.431771,-0.16842 c -9.955624,-0.37833 -17.498009,-2.4427 -20.390804,-5.58101 -0.948509,-1.02901 -1.106592,-1.36634 -1.106592,-2.36137 0,-0.77932 0.182948,-1.39343 0.556638,-1.8685 l 0.556637,-0.70765 1.2293,1.14636 c 3.636255,3.39091 10.32239,5.35959 19.287113,5.67895 l 4.299479,0.15317 v -1.89123 -1.89123 l -2.315104,-0.002 c -1.273308,-10e-4 -3.684323,-0.12155 -5.357813,-0.26748 -8.525068,-0.74344 -14.648913,-2.68399 -17.198471,-5.44993 -0.898889,-0.97518 -1.057779,-1.32193 -1.057779,-2.30841 0,-0.77504 0.182873,-1.39334 0.550242,-1.86037 l 0.550241,-0.69952 1.429109,1.27374 c 2.33453,2.08073 7.08332,4.09617 11.054668,4.69171 l 1.258042,0.18865 -0.07896,-1.78795 -0.07896,-1.78795 -3.031292,-0.61038 c -5.338658,-1.075 -8.883924,-2.60363 -10.699626,-4.61339 -0.770551,-0.85291 -0.953457,-1.26494 -0.953457,-2.14785 0,-0.6299 0.223575,-1.45424 0.528013,-1.94683 1.464154,-2.36905 6.943064,-4.56115 14.02407,-5.611 4.196052,-0.62212 13.531033,-0.62212 17.727084,0 7.081006,1.04985 12.559916,3.24195 14.024076,5.611 2.17763,3.52349 -2.13266,6.89734 -11.12507,8.70807 l -3.031298,0.61038 -0.07896,1.78795 -0.07897,1.78795 1.258038,-0.18865 c 3.97135,-0.59554 8.72014,-2.61098 11.05467,-4.69171 l 1.42911,-1.27374 0.55024,0.69952 c 0.36737,0.46703 0.55024,1.08533 0.55024,1.86037 0,2.26188 -2.70904,4.30563 -7.80521,5.88839 -1.45521,0.45195 -3.59833,0.97716 -4.7625,1.16714 l -2.116661,0.3454 -0.07905,1.80464 -0.07905,1.80464 1.401971,-0.18278 c 1.93461,-0.25224 6.62246,-1.85075 8.39812,-2.86367 0.80878,-0.46138 2.0237,-1.35473 2.69981,-1.98522 l 1.22931,-1.14636 0.55663,0.70765 c 0.37369,0.47507 0.55664,1.08918 0.55664,1.8685 0,0.99503 -0.15808,1.33236 -1.10659,2.36137 -1.82184,1.97647 -6.95087,4.0738 -11.59341,4.7407 -2.084963,0.29951 -2.116671,0.32303 -2.116671,1.56974 0,0.76834 -0.187359,1.3753 -0.577728,1.87158 l -0.577731,0.73446 1.305335,-0.18483 c 4.651505,-0.65863 9.684125,-2.70629 12.117635,-4.93038 l 1.47507,-1.34813 0.53606,0.87924 c 1.05199,1.7255 0.46173,3.7025 -1.51134,5.06199 -2.5596,1.76364 -6.94405,3.22257 -12.1086,4.02916 -3.182442,0.49703 -12.293822,0.71427 -15.607659,0.37214 z m 8.863542,-20.09342 v -1.85208 h -2.513542 -2.513542 v 1.85208 1.85208 h 2.513542 2.513542 z"
         id="path898"
         inkscape:connector-curvature="0" />
      <path
         style="fill:#ed6a00;stroke-width:0.26458332"
         d="m 85.434856,145.84518 c -7.245819,-0.59934 -13.601134,-2.47104 -16.231163,-4.78024 -1.761469,-1.54659 -2.14737,-3.08695 -1.173538,-4.68427 l 0.540526,-0.8866 1.40146,1.32545 c 1.617913,1.53015 4.139109,2.87412 7.206256,3.84141 3.745042,1.18109 6.462057,1.54708 12.534253,1.68844 l 5.688542,0.13242 -0.86214,-0.85492 c -0.555119,-0.55046 -0.920496,-1.21984 -1.026004,-1.87965 l -0.163864,-1.02475 -1.752121,-10e-4 c -3.42854,-0.002 -9.208518,-0.56145 -12.375328,-1.19761 -8.99753,-1.80745 -13.300982,-5.09156 -11.196051,-8.54409 l 0.536055,-0.87925 1.486714,1.35877 c 3.683632,3.36664 9.99931,5.20964 18.804301,5.48736 l 4.564063,0.14396 v -2.04374 -2.04375 l -0.992188,0.16475 c -1.335423,0.22175 -8.777708,-0.27361 -11.792656,-0.78491 -9.674109,-1.64066 -14.791261,-5.2276 -12.595623,-8.82909 l 0.546722,-0.89678 1.105935,1.07005 c 2.283944,2.20985 5.6834,3.80508 10.167914,4.77139 l 2.447396,0.52736 v -1.90529 -1.9053 l -2.050521,-0.3443 c -6.605474,-1.10893 -12.042913,-3.79254 -12.659151,-6.24783 -0.81476,-3.24626 3.705983,-6.1991 11.916484,-7.78357 8.667808,-1.67271 20.314475,-1.17201 27.530591,1.18356 5.21358,1.70189 7.80163,4.08413 7.17019,6.60001 -0.61624,2.45529 -6.05368,5.1389 -12.65916,6.24783 l -2.050517,0.34424 v 1.9053 1.90529 l 2.447397,-0.52736 c 4.48451,-0.96631 7.88397,-2.56154 10.16791,-4.77139 l 1.10594,-1.07005 0.54672,0.89678 c 1.37717,2.25896 0.12251,4.32194 -3.81693,6.27601 -1.9595,0.97197 -5.56345,2.03392 -8.35042,2.46056 l -2.100617,0.32157 v 1.95642 c 0,1.73654 0.05204,1.94178 0.463021,1.82606 0.254666,-0.0717 0.879736,-0.20787 1.389066,-0.3026 1.93671,-0.3602 5.47892,-1.54242 7.16394,-2.39099 0.96422,-0.48557 2.42214,-1.4943 3.23984,-2.24163 l 1.48671,-1.35877 0.53606,0.87925 c 2.09489,3.43607 -2.20596,6.73698 -11.11505,8.5308 l -3.031295,0.61035 -0.143708,1.22013 c -0.07904,0.67107 -0.395695,1.56097 -0.703681,1.97754 l -0.559975,0.75741 2.115699,-0.36538 c 4.78458,-0.82627 9.16498,-2.69066 11.49155,-4.89102 l 1.40146,-1.32545 0.54053,0.8866 c 0.97383,1.59732 0.58793,3.13768 -1.17354,4.68427 -4.10467,3.60395 -16.02727,5.70174 -27.168004,4.78024 z m 7.981961,-20.21958 v -1.98438 h -2.513542 -2.513542 v 1.98438 1.98437 h 2.513542 2.513542 z"
         id="path896"
         inkscape:connector-curvature="0" />
      <path
         style="fill:#bd340a;stroke-width:0.26458332"
         d="m 94.939668,141.96235 c -1.469831,-0.91134 -1.522851,-1.30029 -1.522851,-11.17157 v -9.04235 l -0.773399,-0.77339 c -0.994838,-0.99484 -2.317059,-1.04795 -3.379036,-0.13572 -0.737322,0.63335 -0.743254,0.66401 -0.874649,4.52012 l -0.132291,3.88243 -0.86407,0.77155 c -0.688168,0.61449 -1.110988,0.77155 -2.07698,0.77155 -1.026609,0 -1.351083,-0.13817 -2.112492,-0.89958 l -0.899583,-0.89958 v -4.08838 c 0,-5.00884 -0.203756,-5.46989 -2.83445,-6.41361 -2.052882,-0.73644 -2.926926,-1.30179 -3.308968,-2.14028 -0.683592,-1.50032 1.8713,-3.18185 6.299626,-4.14617 2.241572,-0.48813 3.466308,-0.57095 8.44275,-0.57095 6.551745,0 9.754235,0.48093 12.531975,1.882 3.46899,1.74973 3.08841,3.47338 -1.09857,4.9754 -1.19508,0.42872 -1.80633,0.82659 -2.23913,1.45747 -0.59057,0.86085 -0.595317,0.94456 -0.595317,10.49907 0,10.57 -0.0291,10.78352 -1.57884,11.58493 -1.008208,0.52136 -2.077736,0.4988 -2.983725,-0.0629 z"
         id="path894"
         inkscape:connector-curvature="0" />
    </g>
  </g>
</svg>
